<?xml version="1.0" encoding="UTF-8"?>
<svg id="svg4488" xmlns="http://www.w3.org/2000/svg" version="1.1" xmlns:svg="http://www.w3.org/2000/svg" viewBox="0 0 1024 292">
  <!-- Generator: Adobe Illustrator 29.1.0, SVG Export Plug-In . SVG Version: 2.1.0 Build 142)  -->
  <defs>
    <style>
      .st0 {
        fill: #fff;
      }

      .st1 {
        fill: #00a389;
      }
    </style>
  </defs>
  <rect id="rect3716" class="st0" x="8.5" y="8.3" width="163.3" height="164.2"/>
  <path id="path2589" class="st1" d="M8.5,8.3v45.7c3.6-.2,7.1-.4,10.8-.7,39.7-3,94-10.1,152.5-35.4v-9.6H8.5ZM171.8,21.8C114.2,47.6,56.7,58.6,8.5,62.5v18.8c47.8-8.4,106.2-23.5,163.3-50.6v-8.9ZM171.8,36.8c-56,27.8-114.2,45.3-163.3,56.1v32.1c43.2-17.6,103.7-44.9,163.3-80.4v-7.8ZM171.8,57C112.3,95.9,51.9,127.1,8.5,147.7v24.7c38.8-20,95.7-52.3,163.3-99.6v-15.8ZM171.8,76.5c-52.5,39.4-106.1,72.3-148,95.9h22.2c29.4-17.4,65-40.2,100.5-66.8,8.3-6.2,16.8-12.6,25.3-19.2v-9.9ZM171.8,92.6c-37.2,31.3-74,58.4-104.9,79.8h104.9v-79.8Z"/>
  <path id="path2633" class="st0" d="M226.7,172.4h21.9v-48h37v-17.2h-37v-27h38.9v-17.2h-60.8v109.4ZM302.6,172.4h21v-29.6c0-11.6,0-32.9,17.1-32.9s7.5.6,9.4,1.7v-21.2c-2.2-.6-4.4-.6-6.4-.6-12.5,0-21.2,12.7-22.1,20.2h-.3v-18.3h-18.6v80.7ZM365.8,113.9c7.1-5.3,16-8.8,24.9-8.8s18.2,4.4,18.2,17.4h-11.6c-8.8,0-19.1.8-27.1,4.7-8,3.9-13.8,11-13.8,23.1s13.9,24,28.2,24,20.1-5,24.9-13.9h.3c.2,2.5.2,7.8.9,12.1h18.5c-.5-6.3-.8-11.9-.9-18-.2-6-.3-12.1-.3-20.2v-10.3c0-23.8-10.2-34-34.8-34s-19.9,2.4-28.1,6.1l.6,18ZM376.4,149c0-12.4,14-14,23.4-14h9.1c0,6.3-.9,12.1-4.4,16.6-3.3,4.4-8.3,7.2-14.7,7.2s-13.3-3-13.3-9.9M519.7,91.6h-21v39.5c0,10.3-3.3,26.8-18.5,26.8s-13.6-13.3-13.6-23.2v-43.1h-21v50.9c0,18.2,8.3,31.7,27.4,31.7s20.1-5,26.5-12.9h.3v11h19.9v-80.7ZM541.3,172.4h21v-39.5c0-10.3,3.3-26.8,18.5-26.8s13.6,13.3,13.6,23.2v43.1h21v-51c0-18.2-8.3-31.7-27.4-31.7s-19.9,3.6-26.5,12.9h-.3v-11h-19.9v80.7ZM637.1,172.4h21v-39.5c0-10.3,3.3-26.8,18.5-26.8s13.6,13.3,13.6,23.2v43.1h21v-51c0-18.2-8.3-31.7-27.4-31.7s-20.1,5-25.4,12.9h-.3v-47.8h-21v117.6ZM724.6,132.5c0,23.2,15.5,41.7,42.2,41.7s42.3-18.5,42.3-41.7-18.3-42.8-42.3-42.8-42.2,16.1-42.2,42.8M746.5,130c0-12.1,6.6-24,20.2-24s20.4,11.6,20.4,24-4.2,27.9-20.4,27.9-20.2-14.6-20.2-27.9M830.1,172.4h21v-65.4h18.3v-15.4h-18.3v-10c0-6.3,2.2-12.4,9.3-12.4s7.2,1.7,9.1,2.8l1.7-17.4c-4.1-.9-10-1.7-15.4-1.7-16.6,0-25.7,11.3-25.7,27.4v11.3h-15.5v15.4h15.5v65.4ZM897.1,124.1c1-10.8,6.9-19,18.7-19s16.5,8.8,17.1,19h-35.7ZM947,150.7c-7.9,4.4-16.6,8.2-26.8,8.2s-22.1-7.4-23-20.4h55.8c0-28.2-8.5-48.7-38.4-48.7s-37.4,19.3-37.4,42.6,15.5,41.9,42.2,41.9,20-2.2,27.7-6.4v-17.1ZM968,172.4h21v-29.6c0-11.6,0-32.9,17.1-32.9s7.5.6,9.4,1.7v-21.2c-2.2-.6-4.4-.6-6.4-.6-12.5,0-21.2,12.7-22.1,20.2h-.3v-18.3h-18.6v80.7Z"/>
  <path id="path2635" class="st0" d="M957.1,227.2c-4.8,0-9.1,1.2-12.7,3.7-3.8,2.6-5.7,7-5.8,13,0,2.2.3,4,1,5.6.7,1.6,1.6,3,2.7,4.1,1.2,1.1,2.5,2.2,3.8,3,1.3.8,2.7,1.4,4.1,2.1,3,1.1,5.7,2.4,8,3.7,1.1.6,1.8,1.4,2.5,2.4.6.9,1,1.9,1,3.3,0,2.4-1.1,4.2-3.1,5.3-2,1.2-4.2,1.8-6.4,1.8-4.2,0-8.3-1.2-12-3.4l-.9,9.9c2.5.6,4.7,1.1,6.7,1.5,1.9.4,4.1.6,6.8.6,5.6,0,10.3-1.3,14.1-3.8,3.8-2.6,5.7-6.7,5.8-12.6,0-2.4-.3-4.4-.9-6.1-.7-1.6-1.6-3-2.7-4.1-1.1-1.2-2.3-2.3-3.7-3.1-1.4-.8-2.7-1.5-4.1-2.1-1.5-.6-3-1.2-4.3-1.8-1.4-.5-2.5-1.1-3.7-1.8-1.1-.6-2-1.3-2.7-2.1-.7-.8-1-1.8-1-3s.2-2.7.7-3.7c.6-1,1.3-1.8,2.1-2.4.9-.6,1.9-1,2.8-1.2.9-.2,1.8-.3,2.7-.3,3.8,0,7.4.9,10.8,2.4l.9-9c-3.9-1.3-8-1.9-12.6-1.9ZM871,228.1v54.8h10.5v-54.8h-10.5ZM896.7,228.1v54.8h31.4v-8.6h-20.9v-15.4h18.9v-8.6h-18.9v-13.6h20.7v-8.6h-31.2ZM984.1,228.1v54.8h31.4v-8.6h-20.9v-15.4h18.9v-8.6h-18.9v-13.6h20.7v-8.6h-31.2Z"/>
</svg>