<?xml version="1.0" encoding="UTF-8"?>
<svg xmlns="http://www.w3.org/2000/svg" xmlns:xlink="http://www.w3.org/1999/xlink" viewBox="0 0 268.31 88.86">
  <defs>
    <style>
      .cls-1 {
        fill: url(#linear-gradient-2);
      }

      .cls-2 {
        fill: url(#Unbenannter_Verlauf_5);
      }

      .cls-3 {
        fill: #f7a845;
      }

      .cls-4 {
        fill: #9d9d9c;
      }

      .cls-5 {
        fill: url(#linear-gradient);
      }
    </style>
    <linearGradient id="linear-gradient" x1="12.29" y1="36.31" x2="40" y2="64.02" gradientUnits="userSpaceOnUse">
      <stop offset="0" stop-color="#9d9d9c" stop-opacity="0"/>
      <stop offset=".03" stop-color="#9d9d9c" stop-opacity=".05"/>
      <stop offset=".19" stop-color="#9d9d9c" stop-opacity=".34"/>
      <stop offset=".36" stop-color="#9d9d9c" stop-opacity=".58"/>
      <stop offset=".52" stop-color="#9d9d9c" stop-opacity=".76"/>
      <stop offset=".69" stop-color="#9d9d9c" stop-opacity=".89"/>
      <stop offset=".85" stop-color="#9d9d9c" stop-opacity=".97"/>
      <stop offset="1" stop-color="#9d9d9c"/>
    </linearGradient>
    <linearGradient id="linear-gradient-2" x1="6516.34" y1="20.25" x2="6488.63" y2="47.96" gradientTransform="translate(6528.63) rotate(-180) scale(1 -1)" gradientUnits="userSpaceOnUse">
      <stop offset="0" stop-color="#009fe3" stop-opacity="0"/>
      <stop offset=".06" stop-color="#009fe3" stop-opacity=".06"/>
      <stop offset="1" stop-color="#009fe3"/>
    </linearGradient>
    <linearGradient id="Unbenannter_Verlauf_5" data-name="Unbenannter Verlauf 5" x1="6516.34" y1="4.2" x2="6488.63" y2="31.9" gradientTransform="translate(6528.63) rotate(-180) scale(1 -1)" gradientUnits="userSpaceOnUse">
      <stop offset="0" stop-color="#f29101" stop-opacity="0"/>
      <stop offset=".09" stop-color="#f29101" stop-opacity=".16"/>
      <stop offset=".22" stop-color="#f29101" stop-opacity=".38"/>
      <stop offset=".35" stop-color="#f29101" stop-opacity=".57"/>
      <stop offset=".48" stop-color="#f29101" stop-opacity=".73"/>
      <stop offset=".61" stop-color="#f29101" stop-opacity=".85"/>
      <stop offset=".74" stop-color="#f29101" stop-opacity=".93"/>
      <stop offset=".87" stop-color="#f29101" stop-opacity=".98"/>
      <stop offset=".99" stop-color="#f29101"/>
    </linearGradient>
  </defs>
  <g id="Ebene_1">
    <g>
      <g>
        <path class="cls-5" d="M29.25,33.04l21.32,13.96c2.28,1.49,2.28,4.82,0,6.31l-21.32,13.96c-1.89,1.24-4.33,1.24-6.22,0L1.71,53.32c-2.28-1.49-2.28-4.82,0-6.31l21.32-13.96c1.89-1.24,4.33-1.24,6.22,0Z"/>
        <path class="cls-1" d="M29.25,16.99l21.32,13.96c2.28,1.49,2.28,4.82,0,6.31l-21.32,13.96c-1.89,1.24-4.33,1.24-6.22,0L1.71,37.27c-2.28-1.49-2.28-4.82,0-6.31l21.32-13.96c1.89-1.24,4.33-1.24,6.22,0Z"/>
        <path class="cls-2" d="M29.25.93l21.32,13.96c2.28,1.49,2.28,4.82,0,6.31l-21.32,13.96c-1.89,1.24-4.33,1.24-6.22,0L1.71,21.21c-2.28-1.49-2.28-4.82,0-6.31L23.03.93c1.89-1.24,4.33-1.24,6.22,0Z"/>
      </g>
      <g>
        <path class="cls-4" d="M61.45,10.32h27.37c11.69,0,15.97,3.34,15.97,12.34,0,5.95-1.89,9.37-6.68,10.89v.14c6.17,1.38,8.5,5.01,8.5,11.98,0,9.58-4.43,13.29-16.12,13.29h-29.04V10.32ZM88.17,32.17c9.29,0,12.27-2.11,12.27-9s-2.83-8.86-12.13-8.86h-22.51v17.86h22.36ZM89.99,54.97c9.08,0,12.2-2.4,12.2-9.51s-3.05-9.29-12.34-9.29h-24.03v18.81h24.18Z"/>
        <path class="cls-4" d="M111.34,49.23c0-7.48,4.21-10.31,15.1-10.31,3.56,0,8.28.29,14.45,1.09v-2.25c0-7.99-2.83-10.38-12.78-10.38-5.45,0-9.15.65-13.07,2.11l-.51-3.92c4.36-1.38,8.42-1.96,13.8-1.96,12.71,0,16.77,3.34,16.77,13.8v21.56h-3.19l-.73-4.5c-6.03,3.85-11.11,5.37-17.06,5.37-8.71,0-12.78-3.27-12.78-10.6ZM140.89,50.61v-6.9c-6.61-.87-11.98-1.16-14.74-1.16-7.91,0-10.6,1.89-10.6,6.61s2.9,6.9,9.37,6.9c5.66,0,9.95-1.52,15.97-5.44Z"/>
        <path class="cls-4" d="M149.97,56.64l.51-4.21c5.95,2.32,12.63,3.41,20.77,3.41,13,0,17.28-2.76,17.28-10.24,0-6.03-2.76-8.06-13.8-9l-6.83-.58c-13.21-1.09-16.99-4.28-16.99-12.42,0-10.24,5.88-14.16,21.42-14.16,6.75,0,12.85.73,18.22,2.69l-.51,4.14c-5.52-1.96-11.25-2.83-18.22-2.83-12.42,0-16.55,2.61-16.55,9.73,0,5.45,2.4,7.48,13.8,8.5l6.75.58c13.14,1.16,17.06,4.43,17.06,13.14,0,10.6-5.74,14.45-22,14.45-8.06,0-14.74-.94-20.91-3.19Z"/>
        <path class="cls-4" d="M226.91,24.47l-18.08,41.53c-2.76,6.32-4.86,7.84-11.04,7.84h-2.11v-3.7h2.03c4.07,0,5.3-1.09,7.33-5.66l2.83-6.46-14.96-33.54h4.58l12.63,28.53,12.27-28.53h4.5Z"/>
        <path class="cls-4" d="M241,40.67l-13.07-16.7h11.25l8.71,11.55,8.28-11.55h9.95l-13,17.79,13.36,17.21h-11.25l-9.08-12.05-8.57,12.05h-9.95l13.36-18.3Z"/>
      </g>
    </g>
    <g>
      <path class="cls-4" d="M64.22,77.77h2.54l4.68,10.9h-2.29l-.91-2.16h-5.56l-.93,2.16h-2.2l4.67-10.9ZM67.49,84.68l-2.03-4.95-2.03,4.95h4.07Z"/>
      <path class="cls-4" d="M72.56,88.39l.15-1.71c1.15.37,2.08.55,3.53.55s1.87-.18,1.87-.81c0-.54-.24-.68-1.5-.81l-1.15-.11c-2.03-.2-2.83-.73-2.83-2.34,0-1.89.99-2.52,3.87-2.52,1.12,0,2.1.1,3.19.39l-.13,1.66c-1.15-.29-1.97-.42-3.16-.42-1.42,0-1.79.18-1.79.78,0,.5.26.63,1.53.76l1.15.11c2.07.21,2.8.8,2.8,2.42,0,1.87-.96,2.52-3.92,2.52-1.46,0-2.6-.15-3.61-.47Z"/>
      <path class="cls-4" d="M81.28,88.39l.15-1.71c1.15.37,2.08.55,3.53.55s1.87-.18,1.87-.81c0-.54-.24-.68-1.5-.81l-1.15-.11c-2.03-.2-2.83-.73-2.83-2.34,0-1.89.99-2.52,3.87-2.52,1.12,0,2.1.1,3.19.39l-.13,1.66c-1.15-.29-1.97-.42-3.16-.42-1.42,0-1.79.18-1.79.78,0,.5.26.63,1.53.76l1.15.11c2.07.21,2.8.8,2.8,2.42,0,1.87-.96,2.52-3.92,2.52-1.46,0-2.6-.15-3.61-.47Z"/>
      <path class="cls-4" d="M90.12,84.76c0-3.01,1.17-4.13,4.28-4.13,2.94,0,4.1,1.02,4.1,3.66,0,.31-.02.75-.05,1.14h-6.25c.16,1.38.85,1.77,2.72,1.77,1.15,0,1.97-.15,2.99-.52l.13,1.69c-1.12.36-1.97.49-3.22.49-3.45,0-4.7-1.01-4.7-4.1ZM96.51,83.96c-.11-1.33-.63-1.71-2.1-1.71s-2.08.41-2.21,1.71h4.31Z"/>
      <path class="cls-4" d="M100.87,86.13v-3.68h-1.58v-1.63h1.64l.2-2.15h1.76v2.15h2.28v1.63h-2.28v3.45c0,.86.21,1.07,1.03,1.07h1.25v1.69h-1.79c-1.81,0-2.5-.65-2.5-2.54Z"/>
      <path class="cls-4" d="M113.54,77.77h2.54l4.68,10.9h-2.29l-.91-2.16h-5.56l-.93,2.16h-2.2l4.67-10.9ZM116.8,84.68l-2.03-4.95-2.03,4.95h4.07Z"/>
      <path class="cls-4" d="M121.52,84.73c0-2.91.99-4.1,3.45-4.1,1.06,0,1.9.21,2.88.75v-4.2h2.02v11.48h-1.51l-.2-.73c-1.09.65-2.02.93-3.19.93-2.46,0-3.45-1.19-3.45-4.13ZM127.84,86.4v-3.32c-.85-.49-1.5-.7-2.33-.7-1.46,0-1.95.59-1.95,2.36s.49,2.36,1.95,2.36c.83,0,1.48-.21,2.33-.7Z"/>
      <path class="cls-4" d="M132.07,80.83h1.51l.18.72c1.07-.67,1.89-.91,2.88-.91,1.11,0,1.85.31,2.28.96,1.11-.7,1.94-.96,2.96-.96,1.87,0,2.7.86,2.7,2.85v5.19h-2.02v-4.65c0-1.14-.39-1.56-1.35-1.56-.67,0-1.2.2-1.89.62.02.13.02.26.02.41v5.19h-2.02v-4.65c0-1.14-.39-1.56-1.35-1.56-.67,0-1.22.2-1.89.63v5.58h-2.02v-7.84Z"/>
      <path class="cls-4" d="M146.59,77.56h2.16v1.92h-2.16v-1.92ZM146.65,80.83h2.02v7.84h-2.02v-7.84Z"/>
      <path class="cls-4" d="M150.88,80.83h1.51l.2.75c1.19-.7,2.05-.94,3.12-.94,2.02,0,2.93.88,2.93,2.85v5.19h-2.02v-4.65c0-1.14-.42-1.56-1.53-1.56-.78,0-1.4.21-2.2.67v5.55h-2.02v-7.84Z"/>
      <path class="cls-4" d="M160.65,77.56h2.16v1.92h-2.16v-1.92ZM160.72,80.83h2.02v7.84h-2.02v-7.84Z"/>
      <path class="cls-4" d="M164.44,88.39l.15-1.71c1.15.37,2.08.55,3.53.55s1.87-.18,1.87-.81c0-.54-.24-.68-1.5-.81l-1.15-.11c-2.03-.2-2.83-.73-2.83-2.34,0-1.89.99-2.52,3.87-2.52,1.12,0,2.1.1,3.19.39l-.13,1.66c-1.15-.29-1.97-.42-3.16-.42-1.42,0-1.79.18-1.79.78,0,.5.26.63,1.53.76l1.15.11c2.07.21,2.8.8,2.8,2.42,0,1.87-.96,2.52-3.92,2.52-1.46,0-2.6-.15-3.61-.47Z"/>
      <path class="cls-4" d="M174.12,86.13v-3.68h-1.58v-1.63h1.64l.2-2.15h1.76v2.15h2.28v1.63h-2.28v3.45c0,.86.21,1.07,1.03,1.07h1.25v1.69h-1.79c-1.81,0-2.5-.65-2.5-2.54Z"/>
      <path class="cls-4" d="M179.86,80.83h1.51l.21.78c1.17-.73,2.02-.98,2.96-.98h.44v1.82h-.37c-1.06,0-1.85.18-2.73.63v5.58h-2.02v-7.84Z"/>
      <path class="cls-4" d="M185.56,86.34c0-1.82.98-2.47,3.58-2.47.6,0,1.4.03,2.36.13v-.07c0-1.27-.52-1.64-2.26-1.64-1.09,0-1.9.15-2.81.45l-.15-1.69c1.12-.31,2.02-.42,3.22-.42,3.04,0,4.02.76,4.02,3.24v4.8h-1.5l-.23-.81c-1.19.73-2.2,1.01-3.38,1.01-1.98,0-2.85-.8-2.85-2.52ZM191.5,86.47v-1.03c-1.02-.1-1.84-.13-2.31-.13-1.24,0-1.63.23-1.63.93,0,.75.46.98,1.38.98s1.64-.21,2.55-.75Z"/>
      <path class="cls-4" d="M196.18,86.13v-3.68h-1.58v-1.63h1.64l.2-2.15h1.76v2.15h2.28v1.63h-2.28v3.45c0,.86.21,1.07,1.03,1.07h1.25v1.69h-1.79c-1.81,0-2.5-.65-2.5-2.54Z"/>
      <path class="cls-4" d="M201.85,77.56h2.16v1.92h-2.16v-1.92ZM201.92,80.83h2.02v7.84h-2.02v-7.84Z"/>
      <path class="cls-4" d="M205.77,84.74c0-3.01,1.19-4.11,4.37-4.11s4.36,1.11,4.36,4.11-1.17,4.12-4.36,4.12-4.37-1.12-4.37-4.12ZM212.46,84.74c0-1.81-.55-2.36-2.31-2.36s-2.33.55-2.33,2.36.57,2.36,2.33,2.36,2.31-.57,2.31-2.36Z"/>
      <path class="cls-4" d="M216.34,80.83h1.51l.2.75c1.19-.7,2.05-.94,3.12-.94,2.02,0,2.93.88,2.93,2.85v5.19h-2.02v-4.65c0-1.14-.42-1.56-1.53-1.56-.78,0-1.4.21-2.2.67v5.55h-2.02v-7.84Z"/>
      <path class="cls-4" d="M229.04,88.23l.15-1.95c1.35.5,2.83.73,4.73.73,2.26,0,2.86-.36,2.86-1.48,0-.86-.36-1.17-2.07-1.3l-1.82-.15c-2.78-.23-3.72-.99-3.72-3.09,0-2.5,1.32-3.42,5.01-3.42,1.56,0,2.88.16,4.18.54l-.15,1.94c-1.32-.42-2.6-.62-4.26-.62-2.13,0-2.65.34-2.65,1.4,0,.8.29,1.09,2.08,1.24l1.81.15c2.83.23,3.72,1.06,3.72,3.2,0,2.57-1.3,3.45-5.14,3.45-1.85,0-3.42-.21-4.73-.63Z"/>
      <path class="cls-4" d="M240.67,77.18h2.02v4.21c1.04-.55,1.84-.76,2.81-.76,2.02,0,2.93.88,2.93,2.85v5.19h-2.02v-4.65c0-1.14-.42-1.56-1.53-1.56-.78,0-1.4.21-2.2.67v5.55h-2.02v-11.48Z"/>
      <path class="cls-4" d="M250.13,84.76c0-3.01,1.17-4.13,4.28-4.13,2.94,0,4.1,1.02,4.1,3.66,0,.31-.02.75-.05,1.14h-6.25c.16,1.38.85,1.77,2.72,1.77,1.15,0,1.97-.15,2.99-.52l.13,1.69c-1.12.36-1.97.49-3.22.49-3.45,0-4.7-1.01-4.7-4.1ZM256.52,83.96c-.11-1.33-.63-1.71-2.1-1.71s-2.08.41-2.21,1.71h4.31Z"/>
      <path class="cls-4" d="M260.24,77.18h2.02v11.48h-2.02v-11.48Z"/>
      <path class="cls-4" d="M264.47,77.18h2.02v11.48h-2.02v-11.48Z"/>
    </g>
  </g>
  <g id="Ebene_2">
    <g>
      <path class="cls-3" d="M197.77,9.92h1.19l.15.56c.85-.51,1.58-.71,2.48-.71,1.92,0,2.7.93,2.7,3.21s-.78,3.24-2.7,3.24c-.82,0-1.49-.17-2.24-.59v3.04h-1.58v-8.75ZM202.69,12.99c0-1.39-.37-1.85-1.53-1.85-.65,0-1.15.15-1.81.54v2.62c.66.38,1.16.54,1.81.54,1.16,0,1.53-.47,1.53-1.85Z"/>
      <path class="cls-3" d="M205.44,12.99c0-2.36.93-3.22,3.43-3.22s3.41.87,3.41,3.22-.92,3.22-3.41,3.22-3.43-.88-3.43-3.22ZM210.67,12.99c0-1.41-.43-1.85-1.81-1.85s-1.82.43-1.82,1.85.45,1.85,1.82,1.85,1.81-.45,1.81-1.85Z"/>
      <path class="cls-3" d="M212.9,9.92h1.67l1.26,4.2,1.38-4.2h1.57l1.38,4.22,1.27-4.22h1.58l-1.99,6.14h-1.67l-1.39-4.27-1.39,4.27h-1.67l-2-6.14Z"/>
      <path class="cls-3" d="M223.63,13c0-2.36.92-3.24,3.35-3.24,2.31,0,3.21.8,3.21,2.87,0,.24-.01.59-.04.89h-4.89c.13,1.08.66,1.39,2.13,1.39.9,0,1.54-.11,2.34-.41l.1,1.32c-.88.28-1.54.38-2.52.38-2.7,0-3.68-.79-3.68-3.21ZM228.64,12.38c-.09-1.04-.5-1.34-1.64-1.34s-1.63.32-1.73,1.34h3.38Z"/>
      <path class="cls-3" d="M231.56,9.92h1.19l.17.61c.92-.57,1.58-.76,2.32-.76h.34v1.43h-.29c-.83,0-1.45.14-2.14.5v4.37h-1.58v-6.14Z"/>
      <path class="cls-3" d="M236.2,13c0-2.36.92-3.24,3.35-3.24,2.31,0,3.21.8,3.21,2.87,0,.24-.01.59-.04.89h-4.89c.13,1.08.66,1.39,2.13,1.39.9,0,1.54-.11,2.34-.41l.1,1.32c-.88.28-1.54.38-2.52.38-2.7,0-3.68-.79-3.68-3.21ZM241.21,12.38c-.09-1.04-.5-1.34-1.64-1.34s-1.63.32-1.73,1.34h3.38Z"/>
      <path class="cls-3" d="M243.88,12.97c0-2.28.78-3.21,2.7-3.21.83,0,1.49.17,2.25.59v-3.29h1.58v9h-1.18l-.15-.57c-.85.51-1.58.73-2.5.73-1.92,0-2.7-.93-2.7-3.24ZM248.84,14.29v-2.6c-.66-.38-1.17-.55-1.82-.55-1.15,0-1.53.46-1.53,1.85s.38,1.85,1.53,1.85c.65,0,1.16-.17,1.82-.55Z"/>
      <path class="cls-3" d="M256.2,15.49l-.15.57h-1.19V7.06h1.58v3.27c.75-.41,1.43-.57,2.24-.57,1.92,0,2.7.93,2.7,3.21s-.78,3.24-2.7,3.24c-.9,0-1.63-.2-2.48-.73ZM259.78,12.99c0-1.39-.37-1.85-1.53-1.85-.65,0-1.15.15-1.81.54v2.62c.66.38,1.16.54,1.81.54,1.16,0,1.53-.47,1.53-1.85Z"/>
      <path class="cls-3" d="M262.51,17.34h.57c.62,0,.79-.14,1.07-.85l.22-.54-2.5-6.04h1.72l1.58,4.14,1.5-4.14h1.63l-2.8,7.19c-.5,1.27-.96,1.57-2.37,1.57h-.62v-1.33Z"/>
    </g>
  </g>
</svg>