<?xml version="1.0" encoding="UTF-8"?>
<svg id="svg12" xmlns="http://www.w3.org/2000/svg" version="1.1" xmlns:svg="http://www.w3.org/2000/svg" xmlns:xlink="http://www.w3.org/1999/xlink" viewBox="0 0 5500 750">
  <!-- Generator: Adobe Illustrator 29.1.0, SVG Export Plug-In . SVG Version: 2.1.0 Build 142)  -->
  <defs>
    <style>
      .st0 {
        fill: #fff;
      }

      .st1 {
        mask: url(#mask);
      }

      .st2 {
        fill: #ff6200;
      }
    </style>
    <mask id="mask" x="1250" y="112" width="4253" height="522.9" maskUnits="userSpaceOnUse">
      <g id="mask0_242_2853">
        <path id="path1" class="st0" d="M5503,113H1253v521.9h4250V113Z"/>
      </g>
    </mask>
  </defs>
  <g class="st1">
    <g id="g10">
      <path id="path2" d="M1536.4,279.4l-59.7,159.9h117.8l-58.1-159.9h0ZM1437.4,538.5l-37.7,87.1h-149.7l209.5-500.8h154.6l205.4,500.8h-151.4l-35.2-87.1h-195.6,0Z"/>
      <path id="path3" d="M2023.4,349.3c55.6,0,87.6-23.3,87.6-62.3s-32.7-62.3-87.6-62.3h-26.2v124.6h26.2ZM2309,625.6h-176.8l-135-192.2v192.2h-141.6V124.8h220.1c62.2,0,102.3,13.5,134.2,44.3,29.5,28.5,46.6,69.1,46.6,110.4,0,75.1-41.7,124.6-119.5,141.2l171.8,205h0Z"/>
      <path id="path4" d="M2483.6,235.2v83.3h212.6v110.4h-212.6v86.3h221.6v110.4h-363.2V124.8h363.2v110.4h-221.6Z"/>
      <path id="path5" d="M2777.1,124.8h141.6l261,306.4V124.8h141.6v500.8h-141.6l-261-306.4v306.4h-141.6V124.8Z"/>
      <path id="path6" d="M3645.4,279.4l-59.7,159.9h117.8l-58.1-159.9ZM3546.4,538.5l-37.6,87.1h-149.7l209.5-500.8h154.6l205.4,500.8h-151.4l-35.2-87.1h-195.6,0s0,0,0,0Z"/>
      <path id="path7" d="M4291,573.8v51.8h-319.8l180-211c66.2-77.3,86.2-111.9,86.2-149.4,0-54.1-43.1-96.9-99.6-96.9s-92.9,35.3-98.9,102.9h-55.8c4.5-44.3,10.4-65.3,26.8-89.3,27.5-39.8,75.1-64.6,126.4-64.6,87,0,155.4,64.6,155.4,147.2s-19.3,90.9-107.1,192.2l-101.1,117.1h207.5,0,0Z"/>
      <path id="path8" d="M4416.9,374.1c0,119.4,52,208,122,208s124.2-90.1,124.2-207.2-53.5-206.5-123.5-206.5-122.7,90.1-122.7,205.7h0ZM4717.3,375.5c0,146.4-77.3,258.3-177.7,258.3s-177-112.6-177-258.3,77.4-258.3,177.7-258.3,177,110.4,177,258.3"/>
      <path id="path9" d="M4913.1,338.7c64.7-1.5,98.2-30.8,98.2-85.6s-35.7-84.8-83.3-84.8-75.1,21.8-85.5,80.4h-54.3c13.4-89.3,57.2-131.4,137.6-131.4s139.8,57,139.8,134.4-22.3,87.8-63.2,111.1c45.3,21.8,70.6,65.3,70.6,122.4,0,84.8-66.2,148.7-153.9,148.7s-106.3-27.8-130.1-72.8c-10.4-18.8-14.1-34.5-16.4-65.3h53.5c8.2,55.5,42.4,86.3,95.2,86.3s97.4-43.5,97.4-99.8-35-93.1-105.6-94.6v-48.8h-.1c0,0,0,0,0,0Z"/>
      <path id="path10" d="M5213,464.2c0,65.3,52,117.9,116.7,117.9s116-52.6,116-117.9-52-117.9-116-117.9-116.7,52.6-116.7,117.9h0ZM5410,143.6l-114.5,160.6c18.6-6,29.7-7.5,44.6-7.5,89.2,0,159.9,72.8,159.9,165.9s-76.6,171.2-170.3,171.2-171-76.5-171-171.2,14.9-77.3,40.9-113.4l168.8-237.3,41.7,31.6h0s0,0,0,0Z"/>
    </g>
  </g>
  <path id="path11" class="st2" d="M0,750L500,0l166.7,250L0,750Z"/>
  <path id="path12" class="st2" d="M500,750l250-375,250,375h-500Z"/>
</svg>