<?xml version="1.0" encoding="UTF-8"?>
<svg id="HTW_Berlin_Logo" xmlns="http://www.w3.org/2000/svg" viewBox="0 0 111.61 65.27">
  <defs>
    <style>
      .cls-1 {
        fill: #fff;
      }

      .cls-2 {
        fill: #76b900;
      }
    </style>
  </defs>
  <g>
    <path class="cls-1" d="M21.26,31.84h1.22v2.55h1.88v-2.55h1.22v6.21h-1.22v-2.58h-1.88v2.58h-1.22v-6.21Z"/>
    <path class="cls-1" d="M26.77,36.77c-.08-.31-.09-.58-.09-1.1s0-.78.09-1.09c.19-.81.91-1.38,1.88-1.38s1.66.57,1.86,1.38c.08.31.09.58.09,1.09s0,.79-.09,1.1c-.19.8-.92,1.38-1.9,1.38s-1.64-.58-1.84-1.38ZM29.37,36.52c.07-.29.07-.57.07-.86s0-.58-.07-.86c-.08-.3-.31-.57-.73-.57s-.66.26-.73.6c-.05.26-.06.56-.06.84s0,.57.06.83c.07.34.32.6.73.6s.66-.27.73-.57Z"/>
    <path class="cls-1" d="M31.62,36.77c-.08-.31-.1-.58-.1-1.1s.02-.79.1-1.11c.19-.8.81-1.36,1.79-1.36.91,0,1.55.39,1.74,1.27.04.19.06.39.06.62v.14h-1.15v-.08c0-.13,0-.22,0-.29-.06-.42-.28-.63-.66-.63-.41,0-.59.25-.66.66-.03.17-.03.5-.03.78s0,.56.03.73c.08.42.29.69.74.69s.74-.28.93-.64l.78.75c-.35.63-1.04.94-1.73.94-1.03,0-1.64-.57-1.83-1.38Z"/>
    <path class="cls-1" d="M37.34,38.05h-1.17v-6.55h1.17v2.1c.21-.23.54-.41.98-.41.96,0,1.56.66,1.56,1.63v3.23h-1.18v-3.08c0-.45-.23-.7-.67-.7-.4,0-.68.26-.68.7v3.08Z"/>
    <path class="cls-1" d="M43.03,35.3c.68.26,1.19.53,1.19,1.43,0,.83-.67,1.42-1.66,1.42-.88,0-1.54-.39-1.82-1.01l.84-.69c.24.39.53.65,1,.65.25,0,.45-.1.45-.33,0-.27-.16-.33-.57-.48l-.37-.13c-.87-.32-1.16-.75-1.16-1.48,0-.84.69-1.46,1.64-1.46,1.14,0,1.63.59,1.63,1.48,0,.08,0,.15,0,.23h-1.17s0-.1,0-.14c0-.44-.25-.53-.49-.53-.3,0-.46.21-.46.42,0,.25.2.38.59.52l.35.13Z"/>
    <path class="cls-1" d="M45.22,36.77c-.08-.31-.1-.58-.1-1.1s.02-.79.1-1.11c.19-.8.81-1.36,1.79-1.36.91,0,1.55.39,1.74,1.27.04.19.06.39.06.62v.14h-1.15v-.08c0-.13,0-.22,0-.29-.06-.42-.28-.63-.67-.63-.41,0-.59.25-.66.66-.03.17-.03.5-.03.78s0,.56.03.73c.08.42.29.69.74.69s.74-.28.93-.64l.78.75c-.35.63-1.04.94-1.73.94-1.03,0-1.64-.57-1.83-1.38Z"/>
    <path class="cls-1" d="M50.89,38.05h-1.17v-6.55h1.17v2.1c.21-.23.54-.41.98-.41.96,0,1.56.66,1.56,1.63v3.23h-1.18v-3.08c0-.45-.23-.7-.67-.7-.4,0-.68.26-.68.7v3.08Z"/>
    <path class="cls-1" d="M57.22,37.59c-.26.37-.67.55-1.1.55-.96,0-1.54-.66-1.54-1.64v-3.21h1.17v3.09c0,.42.22.69.67.69.41,0,.69-.28.69-.69v-3.09h1.17v4.75h-.99l-.07-.46Z"/>
    <path class="cls-1" d="M60.73,36.85c.07.11.2.17.38.17.14,0,.24-.03.3-.05v1.06c-.13.03-.35.05-.52.05-.64,0-1.09-.29-1.28-.73-.09-.21-.12-.47-.12-.72v-5.12h1.18v5.1c0,.1.02.18.07.26Z"/>
    <path class="cls-1" d="M65.7,34.57c.06.24.07.46.07.81,0,.21,0,.46,0,.74h-2.56c0,.12,0,.23.03.32.08.41.32.65.76.65.34,0,.68-.09.97-.56l.76.73c-.43.63-1.06.88-1.75.88-1.02,0-1.65-.58-1.85-1.38-.08-.31-.09-.58-.09-1.1s0-.78.09-1.09c.2-.82.84-1.38,1.82-1.38s1.58.57,1.77,1.38ZM63.22,34.86c-.02.09-.03.2-.03.33h1.41c0-.18,0-.28-.02-.33-.06-.39-.27-.63-.67-.63s-.62.23-.68.63Z"/>
    <path class="cls-1" d="M70.3,34.32v3.73h-1.17v-3.73h-.53v-1.03h.53v-.4c0-.93.57-1.49,1.41-1.49.47,0,.76.1,1.03.27l-.37.94c-.14-.09-.29-.12-.48-.12-.24,0-.41.17-.41.47v.34h.94v1.03h-.94Z"/>
    <path class="cls-1" d="M74.75,37.59c-.26.37-.67.55-1.1.55-.96,0-1.54-.66-1.54-1.64v-3.21h1.17v3.09c0,.42.22.69.66.69.41,0,.69-.28.69-.69v-3.09h1.17v4.75h-.99l-.07-.46ZM72.39,32.16c0-.35.29-.65.66-.65s.67.29.67.65-.3.67-.67.67c-.38,0-.66-.31-.66-.67ZM74.21,32.16c0-.35.29-.65.66-.65s.67.29.67.65-.3.67-.67.67c-.38,0-.66-.31-.66-.67Z"/>
    <path class="cls-1" d="M78.23,38.05h-1.17v-4.75h.99l.07.47c.25-.41.61-.55,1-.55.09,0,.24,0,.42.03v1.15c-.29-.06-.5-.06-.62-.06-.4,0-.68.24-.68.71v3Z"/>
    <path class="cls-1" d="M83.14,32.96h-1.53v-1.12h4.27v1.12h-1.52v5.09h-1.22v-5.09Z"/>
    <path class="cls-1" d="M89.57,34.57c.06.24.07.46.07.81,0,.21,0,.46,0,.74h-2.56c0,.12,0,.23.03.32.08.41.32.65.76.65.34,0,.68-.09.97-.56l.76.73c-.43.63-1.06.88-1.75.88-1.02,0-1.65-.58-1.85-1.38-.08-.31-.09-.58-.09-1.1s0-.78.09-1.09c.2-.82.84-1.38,1.82-1.38s1.58.57,1.77,1.38ZM87.1,34.86c-.02.09-.03.2-.03.33h1.41c0-.18,0-.28-.02-.33-.06-.39-.27-.63-.67-.63s-.62.23-.68.63Z"/>
    <path class="cls-1" d="M90.64,36.77c-.08-.31-.1-.58-.1-1.1s.02-.79.1-1.11c.19-.8.81-1.36,1.79-1.36.91,0,1.55.39,1.74,1.27.04.19.06.39.06.62v.14h-1.15v-.08c0-.13,0-.22,0-.29-.06-.42-.28-.63-.66-.63-.41,0-.59.25-.66.66-.03.17-.03.5-.03.78s0,.56.03.73c.08.42.29.69.74.69s.74-.28.93-.64l.78.75c-.35.63-1.04.94-1.73.94-1.03,0-1.64-.57-1.83-1.38Z"/>
    <path class="cls-1" d="M96.36,38.05h-1.17v-6.55h1.17v2.1c.21-.23.54-.41.98-.41.96,0,1.56.66,1.56,1.63v3.23h-1.18v-3.08c0-.45-.23-.7-.67-.7-.4,0-.68.26-.68.7v3.08Z"/>
    <path class="cls-1" d="M101.25,38.05h-1.17v-4.75h1l.06.43c.25-.35.65-.53,1.09-.53.96,0,1.56.66,1.56,1.63v3.23h-1.18v-3.08c0-.45-.23-.7-.67-.7-.4,0-.68.26-.68.7v3.08Z"/>
    <path class="cls-1" d="M104.88,32.11c0-.38.31-.7.72-.7s.72.32.72.7-.32.72-.72.72-.72-.34-.72-.72ZM105.02,38.05v-4.75h1.18v4.75h-1.18Z"/>
    <path class="cls-1" d="M108.66,36.21v1.84h-1.19v-6.55h1.19v3.61h.1c.9,0,1.22-.72,1.22-1.53,0-.1,0-.19,0-.29h1.2c0,.11.02.23.02.34,0,.91-.34,1.74-1.05,2.2l1.4,2.21h-1.43l-1.08-1.85c-.08,0-.16,0-.25,0h-.11Z"/>
    <path class="cls-1" d="M23.81,47.4c-.26.37-.67.55-1.1.55-.96,0-1.54-.66-1.54-1.63v-3.21h1.17v3.09c0,.42.22.69.66.69.41,0,.69-.28.69-.69v-3.09h1.17v4.75h-.99l-.07-.46Z"/>
    <path class="cls-1" d="M27.26,47.85h-1.17v-4.75h1l.06.43c.25-.35.65-.53,1.09-.53.96,0,1.56.66,1.56,1.62v3.23h-1.18v-3.08c0-.45-.23-.7-.67-.7-.4,0-.68.26-.68.7v3.08Z"/>
    <path class="cls-1" d="M33.73,47.48c-.26.27-.63.47-1.18.47-.86,0-1.47-.56-1.65-1.39-.07-.32-.09-.57-.09-1.09s.02-.8.09-1.12c.16-.83.86-1.35,1.7-1.35.44,0,.76.12,1,.31v-2.01h1.17v6.55h-.98l-.06-.37ZM33.55,46.23c.05-.22.05-.47.05-.77s0-.54-.05-.77c-.09-.41-.35-.66-.77-.66s-.68.26-.76.66c-.04.19-.04.48-.04.77s0,.58.04.77c.08.41.34.68.76.68s.68-.27.77-.68Z"/>
    <path class="cls-1" d="M38.8,47.85l-.9-3.9c-.11-.49-.18-1.17-.18-1.63v-.68h1.22v.68c0,.33.04.91.11,1.34l.16.87c.13.7.29,1.36.29,1.7h.04c.04-.4.17-.93.28-1.32l.49-1.89h1.02l.49,1.75c.15.52.3,1.15.34,1.53h.04c0-.36.15-1.01.27-1.69l.15-.95c.07-.43.1-1.01.1-1.34v-.68h1.22v.68c0,.46-.07,1.12-.17,1.63l-.85,3.9h-1.33l-.55-1.96c-.16-.58-.21-.94-.23-1.19h-.04c-.02.26-.07.61-.23,1.2l-.52,1.95h-1.22Z"/>
    <path class="cls-1" d="M44.81,41.91c0-.38.31-.7.72-.7s.72.32.72.7-.32.72-.72.72-.72-.34-.72-.72ZM44.96,47.85v-4.75h1.18v4.75h-1.18Z"/>
    <path class="cls-1" d="M48.53,47.85h-1.17v-4.75h.99l.07.47c.25-.41.61-.55,1-.55.09,0,.24,0,.42.03v1.15c-.29-.06-.5-.06-.62-.06-.4,0-.68.24-.68.71v3Z"/>
    <path class="cls-1" d="M52.21,47.93c-.8,0-1.38-.55-1.38-1.49v-2.31h-.53v-1.03h.53v-1.29h1.17v1.29h1.14v1.03h-1.14v2.28c0,.29.17.47.43.47.18,0,.34-.06.49-.19l.34.95c-.24.19-.55.29-1.05.29Z"/>
    <path class="cls-1" d="M56.02,45.1c.68.26,1.19.53,1.19,1.43,0,.83-.67,1.42-1.66,1.42-.88,0-1.54-.39-1.82-1.01l.84-.69c.24.39.53.65,1,.65.25,0,.45-.1.45-.33,0-.27-.16-.33-.57-.48l-.37-.13c-.87-.32-1.16-.75-1.16-1.48,0-.84.69-1.46,1.64-1.46,1.14,0,1.63.59,1.63,1.48,0,.08,0,.15,0,.23h-1.17s0-.1,0-.14c0-.44-.25-.53-.49-.53-.3,0-.46.21-.46.42,0,.25.2.38.59.52l.35.13Z"/>
    <path class="cls-1" d="M58.21,46.57c-.08-.31-.1-.58-.1-1.1s.02-.79.1-1.11c.19-.8.81-1.36,1.79-1.36.91,0,1.55.39,1.74,1.27.04.19.06.39.06.62v.14h-1.15v-.08c0-.13,0-.22,0-.29-.06-.42-.28-.63-.67-.63-.41,0-.59.25-.66.66-.03.17-.03.5-.03.78s0,.56.03.73c.08.42.29.69.74.69s.74-.28.93-.64l.78.75c-.35.63-1.04.94-1.73.94-1.03,0-1.64-.57-1.83-1.38Z"/>
    <path class="cls-1" d="M63.88,47.85h-1.17v-6.55h1.17v2.1c.21-.23.54-.41.98-.41.96,0,1.56.66,1.56,1.62v3.23h-1.18v-3.08c0-.45-.23-.7-.67-.7-.4,0-.68.26-.68.7v3.08Z"/>
    <path class="cls-1" d="M68.96,47.89c-.32,0-.48-.02-.68-.08-.6-.17-.95-.66-.95-1.36s.44-1.13.95-1.28c.2-.06.42-.08.74-.08.29,0,.52.05.7.12v-.58c0-.38-.24-.61-.61-.61-.32,0-.57.15-.76.6l-.91-.6c.36-.71.84-1.04,1.73-1.04,1.1,0,1.73.74,1.73,1.6v3.26h-.93l-.05-.33c-.06.06-.11.1-.16.14-.16.14-.47.23-.81.23ZM69.53,46.89c.16-.04.29-.2.29-.42,0-.23-.12-.39-.29-.44-.1-.03-.27-.03-.41-.03s-.29,0-.4.03c-.18.05-.29.21-.29.44s.12.38.29.42c.11.03.27.03.4.03.15,0,.29,0,.4-.03Z"/>
    <path class="cls-1" d="M73.5,44.12v3.73h-1.17v-3.73h-.53v-1.03h.53v-.4c0-.93.57-1.49,1.41-1.49.47,0,.76.1,1.03.27l-.37.94c-.14-.09-.29-.12-.48-.12-.24,0-.41.17-.41.47v.34h.94v1.03h-.94Z"/>
    <path class="cls-1" d="M76.88,47.93c-.8,0-1.38-.55-1.38-1.49v-2.31h-.53v-1.03h.53v-1.29h1.17v1.29h1.14v1.03h-1.14v2.28c0,.29.17.47.43.47.18,0,.34-.06.49-.19l.34.95c-.24.19-.55.29-1.04.29Z"/>
    <path class="cls-1" d="M80.85,47.85v-6.21h1.99c1.12,0,1.89.68,1.89,1.81,0,.44-.19.92-.69,1.27.56.35.77.86.77,1.34,0,1.11-.73,1.79-1.83,1.79h-2.13ZM82.06,42.74v1.55h.69c.44,0,.76-.33.76-.78s-.32-.77-.76-.77h-.69ZM82.06,45.31v1.43h.84c.41,0,.67-.31.67-.73s-.27-.69-.67-.69h-.84Z"/>
    <path class="cls-1" d="M89.32,44.37c.06.24.07.46.07.81,0,.21,0,.46,0,.74h-2.56c0,.12,0,.23.03.32.08.41.32.65.76.65.34,0,.68-.09.97-.56l.76.73c-.43.63-1.06.88-1.75.88-1.02,0-1.65-.58-1.85-1.38-.08-.31-.09-.58-.09-1.1s0-.78.09-1.09c.2-.82.84-1.38,1.82-1.38s1.58.57,1.77,1.38ZM86.85,44.66c-.02.09-.03.2-.03.33h1.41c0-.18,0-.28-.02-.33-.06-.39-.27-.63-.67-.63s-.62.23-.68.63Z"/>
    <path class="cls-1" d="M91.58,47.85h-1.17v-4.75h.99l.07.47c.25-.41.61-.55,1-.55.09,0,.24,0,.42.03v1.15c-.29-.06-.5-.06-.62-.06-.4,0-.68.24-.68.71v3Z"/>
    <path class="cls-1" d="M94.91,46.65c.07.11.2.17.38.17.14,0,.24-.03.3-.05v1.06c-.13.03-.35.05-.52.05-.64,0-1.09-.29-1.28-.73-.09-.21-.12-.47-.12-.72v-5.12h1.18v5.1c0,.09.02.18.07.26Z"/>
    <path class="cls-1" d="M96.27,41.91c0-.38.31-.7.72-.7s.72.32.72.7-.32.72-.72.72-.72-.34-.72-.72ZM96.42,47.85v-4.75h1.18v4.75h-1.18Z"/>
    <path class="cls-1" d="M99.99,47.85h-1.17v-4.75h1l.06.43c.25-.35.65-.53,1.09-.53.96,0,1.56.66,1.56,1.62v3.23h-1.18v-3.08c0-.45-.23-.7-.67-.7-.4,0-.68.26-.68.7v3.08Z"/>
  </g>
  <g>
    <path class="cls-2" d="M23.85,59.02h.94v2.53c0,.81-.04,1.13-.16,1.43-.24.6-.79.95-1.61.95s-1.38-.35-1.61-.94c-.12-.3-.16-.63-.16-1.44v-2.53h.94v2.58c0,.61,0,.73.04.89.08.33.32.56.79.56s.7-.23.78-.55c.04-.16.05-.29.05-.9v-2.58Z"/>
    <path class="cls-2" d="M26.64,63.85h-.91v-3.7h.78l.04.33c.19-.27.5-.41.85-.41.75,0,1.21.51,1.21,1.26v2.52h-.92v-2.4c0-.35-.18-.55-.53-.55-.31,0-.53.2-.53.55v2.4Z"/>
    <path class="cls-2" d="M29.39,59.23c0-.3.24-.55.56-.55s.56.25.56.55-.25.56-.56.56-.56-.27-.56-.56ZM29.5,63.85v-3.7h.92v3.7h-.92Z"/>
    <path class="cls-2" d="M32.23,63.85c-.28-.57-.63-1.43-.84-1.98-.16-.39-.24-.86-.24-1.21v-.51h.9v.51c0,.26.07.65.18,1.01.11.34.35.84.45,1.42h.03c.1-.58.35-1.08.46-1.42.1-.31.18-.75.18-1.01v-.51h.9v.51c0,.36-.08.84-.23,1.21-.21.55-.58,1.41-.86,1.98h-.93Z"/>
    <path class="cls-2" d="M37.67,61.14c.04.19.05.36.05.63,0,.16,0,.35,0,.58h-1.99c0,.1,0,.18.02.25.06.32.25.5.59.5.27,0,.53-.07.75-.44l.59.57c-.33.49-.83.69-1.36.69-.79,0-1.29-.45-1.44-1.07-.06-.24-.07-.45-.07-.86s0-.61.07-.85c.16-.64.65-1.07,1.41-1.07s1.23.44,1.38,1.07ZM35.75,61.36c-.01.07-.02.16-.02.26h1.1c0-.14,0-.21-.01-.26-.04-.3-.21-.49-.53-.49s-.48.18-.53.49Z"/>
    <path class="cls-2" d="M39.39,63.85h-.91v-3.7h.77l.05.36c.19-.32.47-.43.78-.43.07,0,.19,0,.33.02v.9c-.23-.04-.38-.04-.48-.04-.31,0-.53.18-.53.55v2.34Z"/>
    <path class="cls-2" d="M42.5,61.71c.53.2.92.41.92,1.11,0,.64-.53,1.1-1.29,1.1-.69,0-1.2-.3-1.41-.78l.65-.54c.18.3.41.5.78.5.19,0,.35-.08.35-.26,0-.21-.13-.26-.44-.38l-.29-.1c-.68-.25-.9-.58-.9-1.15,0-.65.54-1.14,1.28-1.14.89,0,1.27.46,1.27,1.15,0,.06,0,.12,0,.18h-.91s0-.08,0-.11c0-.34-.19-.41-.38-.41-.24,0-.36.16-.36.33,0,.19.16.3.46.41l.27.1Z"/>
    <path class="cls-2" d="M44.08,59.23c0-.3.24-.55.56-.55s.56.25.56.55-.25.56-.56.56-.56-.27-.56-.56ZM44.19,63.85v-3.7h.92v3.7h-.92Z"/>
    <path class="cls-2" d="M47.24,63.91c-.62,0-1.07-.43-1.07-1.16v-1.8h-.42v-.8h.42v-1.01h.91v1.01h.89v.8h-.89v1.78c0,.23.13.36.33.36.14,0,.27-.04.38-.15l.27.74c-.18.15-.43.23-.81.23Z"/>
    <path class="cls-2" d="M48.63,65.23v-.84c.1.01.19.01.33.01.22,0,.36-.06.51-.38l.1-.23c-.33-.69-.7-1.47-.9-1.95-.18-.42-.23-.79-.23-1.16v-.53h.94v.53c0,.26.04.56.16.88.13.35.38.84.47,1.41h.03c.11-.61.36-1.14.47-1.41.13-.33.16-.62.16-.88v-.53h.93v.53c0,.37-.06.77-.22,1.16-.24.58-.75,1.79-1.1,2.52-.27.56-.6.92-1.24.92-.09,0-.19,0-.42-.04Z"/>
    <path class="cls-2" d="M53.69,62.85c-.06-.24-.07-.45-.07-.86s0-.61.07-.85c.15-.63.71-1.07,1.47-1.07s1.29.44,1.45,1.07c.06.24.07.45.07.85s0,.61-.07.86c-.15.62-.72,1.07-1.48,1.07s-1.28-.45-1.44-1.07ZM55.71,62.66c.05-.22.05-.44.05-.67s0-.45-.05-.67c-.06-.24-.24-.44-.57-.44s-.52.2-.57.47c-.04.2-.04.44-.04.65s0,.44.04.64c.05.27.25.47.57.47s.51-.21.57-.44Z"/>
    <path class="cls-2" d="M58.55,60.95v2.9h-.91v-2.9h-.41v-.8h.41v-.31c0-.73.44-1.16,1.1-1.16.37,0,.59.08.8.21l-.29.73c-.11-.07-.22-.1-.38-.1-.18,0-.32.13-.32.36v.27h.73v.8h-.73Z"/>
    <path class="cls-2" d="M62.06,63.85h-.95v-.53c0-.35.1-.9.23-1.29l1.04-3.01h1.12l1.04,3.02c.13.38.23.93.23,1.28v.53h-.94v-.53c0-.13-.01-.33-.04-.5h-1.68c-.03.17-.04.36-.04.5v.53ZM62.93,60.02l-.6,1.95h1.21l-.61-1.95Z"/>
    <path class="cls-2" d="M66.37,63.67v1.58h-.91v-5.1h.76l.05.3c.2-.22.5-.38.93-.38.67,0,1.14.44,1.27,1.08.05.26.07.44.07.84s-.01.62-.07.87c-.13.64-.66,1.06-1.33,1.06-.33,0-.59-.1-.77-.25ZM66.4,61.39c-.03.15-.03.39-.03.61s0,.44.03.59c.07.32.27.53.6.53s.54-.21.6-.53c.03-.15.04-.36.04-.59s0-.46-.04-.61c-.06-.32-.27-.52-.6-.52s-.53.2-.6.52Z"/>
    <path class="cls-2" d="M70.23,63.67v1.58h-.91v-5.1h.76l.04.3c.2-.22.5-.38.93-.38.67,0,1.14.44,1.27,1.08.05.26.07.44.07.84s-.01.62-.07.87c-.13.64-.66,1.06-1.33,1.06-.33,0-.58-.1-.77-.25ZM70.26,61.39c-.03.15-.03.39-.03.61s0,.44.03.59c.07.32.27.53.6.53s.54-.21.6-.53c.03-.15.04-.36.04-.59s0-.46-.04-.61c-.06-.32-.27-.52-.6-.52s-.53.2-.6.52Z"/>
    <path class="cls-2" d="M74.13,62.92c.05.09.16.13.3.13.11,0,.19-.02.24-.04v.82c-.1.02-.27.04-.41.04-.5,0-.85-.22-1-.57-.07-.16-.1-.36-.1-.56v-3.99h.92v3.97c0,.07.01.14.05.2Z"/>
    <path class="cls-2" d="M75.12,59.23c0-.3.24-.55.56-.55s.56.25.56.55-.25.56-.56.56-.56-.27-.56-.56ZM75.23,63.85v-3.7h.92v3.7h-.92Z"/>
    <path class="cls-2" d="M79.78,61.14c.04.19.05.36.05.63,0,.16,0,.35,0,.58h-1.99c0,.1,0,.18.02.25.06.32.25.5.59.5.27,0,.53-.07.75-.44l.59.57c-.33.49-.83.69-1.36.69-.79,0-1.29-.45-1.44-1.07-.06-.24-.07-.45-.07-.86s0-.61.07-.85c.16-.64.65-1.07,1.41-1.07s1.23.44,1.38,1.07ZM77.85,61.36c-.01.07-.02.16-.02.26h1.1c0-.14,0-.21-.01-.26-.04-.3-.21-.49-.53-.49s-.48.18-.53.49Z"/>
    <path class="cls-2" d="M82.72,63.56c-.2.21-.49.36-.92.36-.67,0-1.15-.44-1.29-1.08-.05-.25-.07-.44-.07-.85s.01-.62.07-.87c.13-.64.67-1.05,1.33-1.05.34,0,.59.1.78.24v-1.56h.91v5.1h-.76l-.04-.29ZM82.58,62.59c.04-.17.04-.37.04-.6s0-.42-.04-.6c-.07-.32-.27-.52-.6-.52s-.53.2-.59.52c-.03.15-.03.37-.03.6s0,.45.03.6c.06.32.27.53.59.53s.53-.21.6-.53Z"/>
    <path class="cls-2" d="M85.69,62.96l.73-.6c.23.48.55.69.92.69.35,0,.55-.18.55-.49,0-.27-.21-.45-.47-.56l-.51-.23c-.7-.32-1.01-.73-1.01-1.38,0-.85.6-1.44,1.47-1.44.8,0,1.49.44,1.49,1.55,0,.07,0,.13,0,.21h-.95c0-.07,0-.13,0-.2,0-.42-.16-.69-.55-.69-.33,0-.52.2-.52.51,0,.22.08.43.43.59l.61.29c.7.33.97.75.97,1.29,0,.9-.61,1.43-1.59,1.43-.75,0-1.29-.4-1.58-.97Z"/>
    <path class="cls-2" d="M89.6,62.85c-.06-.24-.07-.45-.07-.86s.01-.61.07-.87c.15-.62.63-1.06,1.39-1.06.71,0,1.21.3,1.35.99.03.15.04.3.04.48v.11h-.9v-.06c0-.1,0-.17,0-.23-.04-.33-.21-.49-.52-.49s-.46.19-.51.51c-.02.13-.02.39-.02.61s0,.44.02.57c.06.33.23.54.58.54s.58-.21.73-.5l.61.58c-.27.49-.81.73-1.35.73-.8,0-1.27-.44-1.42-1.07Z"/>
    <path class="cls-2" d="M92.95,59.23c0-.3.24-.55.56-.55s.56.25.56.55-.25.56-.56.56-.56-.27-.56-.56ZM93.06,63.85v-3.7h.92v3.7h-.92Z"/>
    <path class="cls-2" d="M97.61,61.14c.04.19.05.36.05.63,0,.16,0,.35,0,.58h-1.99c0,.1,0,.18.02.25.06.32.25.5.59.5.27,0,.53-.07.75-.44l.59.57c-.33.49-.83.69-1.36.69-.79,0-1.29-.45-1.44-1.07-.06-.24-.07-.45-.07-.86s0-.61.07-.85c.16-.64.65-1.07,1.41-1.07s1.23.44,1.38,1.07ZM95.69,61.36c-.01.07-.02.16-.02.26h1.1c0-.14,0-.21-.01-.26-.04-.3-.21-.49-.53-.49s-.48.18-.53.49Z"/>
    <path class="cls-2" d="M99.33,63.85h-.91v-3.7h.78l.04.33c.19-.27.5-.41.85-.41.75,0,1.21.51,1.21,1.26v2.52h-.92v-2.4c0-.35-.18-.55-.53-.55-.31,0-.53.2-.53.55v2.4Z"/>
    <path class="cls-2" d="M102.13,62.85c-.06-.24-.07-.45-.07-.86s.01-.61.07-.87c.15-.62.63-1.06,1.39-1.06.71,0,1.21.3,1.35.99.03.15.04.3.04.48v.11h-.9v-.06c0-.1,0-.17,0-.23-.04-.33-.21-.49-.52-.49s-.46.19-.51.51c-.02.13-.02.39-.02.61s0,.44.02.57c.06.33.23.54.58.54s.58-.21.73-.5l.61.58c-.27.49-.81.73-1.35.73-.8,0-1.27-.44-1.42-1.07Z"/>
    <path class="cls-2" d="M108.35,61.14c.04.19.05.36.05.63,0,.16,0,.35,0,.58h-1.99c0,.1,0,.18.02.25.06.32.25.5.59.5.27,0,.53-.07.75-.44l.59.57c-.33.49-.83.69-1.36.69-.79,0-1.29-.45-1.44-1.07-.06-.24-.07-.45-.07-.86s0-.61.07-.85c.16-.64.65-1.07,1.41-1.07s1.23.44,1.38,1.07ZM106.43,61.36c-.01.07-.02.16-.02.26h1.1c0-.14,0-.21-.01-.26-.04-.3-.21-.49-.53-.49s-.48.18-.53.49Z"/>
    <path class="cls-2" d="M110.69,61.71c.53.2.92.41.92,1.11,0,.64-.53,1.1-1.29,1.1-.69,0-1.2-.3-1.41-.78l.65-.54c.18.3.41.5.78.5.19,0,.35-.08.35-.26,0-.21-.13-.26-.44-.38l-.29-.1c-.68-.25-.9-.58-.9-1.15,0-.65.54-1.14,1.28-1.14.89,0,1.27.46,1.27,1.15,0,.06,0,.12,0,.18h-.91s0-.08,0-.11c0-.34-.19-.41-.38-.41-.24,0-.36.16-.36.33,0,.19.16.3.46.41l.27.1Z"/>
  </g>
  <g>
    <polygon class="cls-2" points="58.46 5.32 63.78 5.32 63.78 15.95 58.46 15.95 58.46 5.32 58.46 5.32"/>
    <polygon class="cls-2" points="69.09 15.95 69.09 21.26 63.78 21.26 63.78 15.95 69.09 15.95 69.09 15.95"/>
    <path class="cls-2" d="M21.26,0h5.31v5.32h5.32v5.31h-5.32v5.32h5.32v5.31h-5.32c-2.94,0-5.31-2.38-5.31-5.31.02,0,0-15.95,0-15.95h0Z"/>
    <path class="cls-2" d="M37.2,5.32h5.32v10.63h5.32V5.32h5.31v10.63h5.32v5.31h-15.94c-2.94,0-5.32-2.38-5.32-5.31V5.32h0Z"/>
    <polygon class="cls-2" points="5.31 10.63 5.31 21.26 0 21.26 0 10.63 5.31 10.63 5.31 10.63"/>
    <polygon class="cls-2" points="5.31 0 5.31 5.32 0 5.32 0 0 5.31 0 5.31 0"/>
    <path class="cls-2" d="M5.31,5.32h5.32c2.94,0,5.32,2.38,5.32,5.31v10.63h-5.31v-10.63h-5.32v-5.31h0Z"/>
  </g>
</svg>